<svg width="16" height="16" viewBox="0 0 16 16" fill="none" xmlns="http://www.w3.org/2000/svg">
<path d="M8.93089 1.41657L10.2292 4.01311C10.4062 4.36718 10.8783 4.72126 11.2717 4.78027L13.6224 5.17368C15.1272 5.4294 15.4813 6.5113 14.3994 7.59319L12.57 9.4324C12.2651 9.7373 12.088 10.3373 12.1864 10.77L12.7077 13.042C13.1208 14.832 12.1667 15.5303 10.5832 14.596L8.38011 13.2879C7.97686 13.0518 7.32773 13.0518 6.92448 13.2879L4.71152 14.5861C3.12802 15.5205 2.17399 14.8222 2.58708 13.0321L3.10835 10.7602C3.2067 10.3373 3.02967 9.7373 2.72477 9.42257L0.905227 7.60302C-0.176664 6.52113 0.177409 5.4294 1.68222 5.18352L4.03288 4.7901C4.42629 4.72126 4.89839 4.37702 5.07543 4.02295L6.37369 1.42641C7.07201 0.0101124 8.23258 0.0101123 8.93089 1.41657Z" fill="#ACACAC"/>
</svg>
