<svg width="22" height="23" viewBox="0 0 22 23" fill="none" xmlns="http://www.w3.org/2000/svg">
<path d="M13.0815 8.8V11.7H15.6815C15.8815 11.7 15.9815 11.9 15.9815 12.1L15.5815 14C15.5815 14.1 15.3815 14.2 15.2815 14.2H13.0815V21.5H10.0815V14.3H8.38154C8.18154 14.3 8.08154 14.2 8.08154 14V12.1C8.08154 11.9 8.18154 11.8 8.38154 11.8H10.0815V8.5C10.0815 6.8 11.3815 5.5 13.0815 5.5H15.7815C15.9815 5.5 16.0815 5.6 16.0815 5.8V8.2C16.0815 8.4 15.9815 8.5 15.7815 8.5H13.3815C13.1815 8.5 13.0815 8.6 13.0815 8.8Z" stroke="#3B3B3B" stroke-width="1.5" stroke-miterlimit="10" stroke-linecap="round"/>
<path d="M14.0815 21.5H8.08154C3.08154 21.5 1.08154 19.5 1.08154 14.5V8.5C1.08154 3.5 3.08154 1.5 8.08154 1.5H14.0815C19.0815 1.5 21.0815 3.5 21.0815 8.5V14.5C21.0815 19.5 19.0815 21.5 14.0815 21.5Z" stroke="#3B3B3B" stroke-width="1.5" stroke-linecap="round" stroke-linejoin="round"/>
</svg>
