<svg width="22" height="23" viewBox="0 0 22 23" fill="none" xmlns="http://www.w3.org/2000/svg">
<path d="M20.6815 9.7H11.2815V13.4H16.7815C16.6815 14.3 16.0815 15.7 14.7815 16.6C13.9815 17.2 12.7815 17.6 11.2815 17.6C8.68149 17.6 6.38149 15.9 5.58149 13.4C5.38149 12.8 5.28149 12.1 5.28149 11.4C5.28149 10.7 5.38149 10 5.58149 9.4C5.68149 9.2 5.68149 9 5.78149 8.9C6.68149 6.8 8.78149 5.3 11.2815 5.3C13.1815 5.3 14.3815 6.1 15.1815 6.8L17.9815 4C16.2815 2.5 13.9815 1.5 11.2815 1.5C7.38149 1.5 3.98149 3.7 2.38149 7C1.68149 8.4 1.28149 9.9 1.28149 11.5C1.28149 13.1 1.68149 14.6 2.38149 16C3.98149 19.3 7.38149 21.5 11.2815 21.5C13.9815 21.5 16.2815 20.6 17.8815 19.1C19.7815 17.4 20.8815 14.8 20.8815 11.7C20.8815 10.9 20.7815 10.3 20.6815 9.7Z" stroke="#3B3B3B" stroke-width="1.5" stroke-miterlimit="10" stroke-linecap="round" stroke-linejoin="round"/>
</svg>
