<svg width="22" height="23" viewBox="0 0 22 23" fill="none" xmlns="http://www.w3.org/2000/svg">
<path d="M5.98154 20.1C7.48154 21 9.28154 21.5 11.0815 21.5C16.5815 21.5 21.0815 17 21.0815 11.5C21.0815 6 16.5815 1.5 11.0815 1.5C5.58154 1.5 1.08154 6 1.08154 11.5C1.08154 13.3 1.58154 15 2.38154 16.5L1.52199 19.806C1.32726 20.5549 2.02047 21.2317 2.76453 21.0191L5.98154 20.1Z" stroke="#3B3B3B" stroke-width="1.5" stroke-miterlimit="10" stroke-linecap="round" stroke-linejoin="round"/>
<path d="M15.5815 14.3485C15.5815 14.5105 15.5455 14.677 15.4689 14.839C15.3923 15.001 15.2931 15.154 15.1624 15.298C14.9416 15.541 14.6982 15.7165 14.4233 15.829C14.1529 15.9415 13.86 16 13.5445 16C13.0848 16 12.5936 15.892 12.0753 15.6715C11.557 15.451 11.0387 15.154 10.525 14.7805C10.0067 14.4025 9.51544 13.984 9.04674 13.5205C8.58254 13.0525 8.16342 12.562 7.78935 12.049C7.4198 11.536 7.12235 11.023 6.90603 10.5145C6.68971 10.0015 6.58154 9.511 6.58154 9.043C6.58154 8.737 6.63562 8.4445 6.74379 8.1745C6.85195 7.9 7.02321 7.648 7.26206 7.423C7.5505 7.1395 7.86597 7 8.19947 7C8.32566 7 8.45185 7.027 8.56452 7.081C8.68169 7.135 8.78535 7.216 8.86647 7.333L9.91204 8.8045C9.99316 8.917 10.0517 9.0205 10.0923 9.1195C10.1329 9.214 10.1554 9.3085 10.1554 9.394C10.1554 9.502 10.1239 9.61 10.0608 9.7135C10.0022 9.817 9.91655 9.925 9.80838 10.033L9.46587 10.3885C9.41629 10.438 9.39376 10.4965 9.39376 10.5685C9.39376 10.6045 9.39827 10.636 9.40728 10.672C9.4208 10.708 9.43432 10.735 9.44334 10.762C9.52446 10.9105 9.66417 11.104 9.86246 11.338C10.0653 11.572 10.2816 11.8105 10.5159 12.049C10.7593 12.2875 10.9937 12.508 11.2325 12.7105C11.4669 12.9085 11.6607 13.0435 11.8139 13.1245C11.8364 13.1335 11.8635 13.147 11.895 13.1605C11.9311 13.174 11.9671 13.1785 12.0077 13.1785C12.0843 13.1785 12.1429 13.1515 12.1925 13.102L12.535 12.7645C12.6476 12.652 12.7558 12.5665 12.8595 12.5125C12.9631 12.4495 13.0668 12.418 13.1794 12.418C13.2651 12.418 13.3552 12.436 13.4544 12.4765C13.5535 12.517 13.6572 12.5755 13.7698 12.652L15.2616 13.7095C15.3787 13.7905 15.4599 13.885 15.5094 13.9975C15.5545 14.11 15.5815 14.2225 15.5815 14.3485Z" stroke="#3B3B3B" stroke-width="1.5" stroke-miterlimit="10"/>
</svg>
